Coordinates
version=1
nRows=37
nColumns=24
inDegrees=yes

Units are S.I. units (second, meters, Newtons, ...)
If the header above contains a line with 'inDegrees', this indicates whether rotational values are in degrees (yes) or radians (no).

endheader
time	pelvis_tilt	pelvis_list	pelvis_rotation	pelvis_tx	pelvis_ty	pelvis_tz	hip_flexion_r	hip_adduction_r	hip_rotation_r	knee_angle_r	ankle_angle_r	subtalar_angle_r	mtp_angle_r	hip_flexion_l	hip_adduction_l	hip_rotation_l	knee_angle_l	ankle_angle_l	subtalar_angle_l	mtp_angle_l	lumbar_extension	lumbar_bending	lumbar_rotation
2.700000	9.861444	2.185437	-180.236262	0.258031	0.850090	-1.210832	19.056415	-9.935936	-32.319484	-13.063470	-1.042987	10.614547	0.000000	20.687302	-16.162573	-27.523222	-16.012678	0.459207	12.175962	0.000000	1.567354	3.005556	-0.012548
2.705000	9.842917	2.218246	-180.212950	0.257825	0.850079	-1.210856	19.013981	-9.905633	-32.361270	-13.067455	-1.008730	10.599022	0.000000	20.689005	-16.197379	-27.464836	-16.060409	0.500899	12.109883	0.000000	1.563808	3.031518	-0.033947
2.710000	9.841617	2.240792	-180.197569	0.257557	0.850090	-1.210881	18.981066	-9.878890	-32.381183	-13.051463	-0.971449	10.601207	0.000000	20.694686	-16.221466	-27.410921	-16.089513	0.493136	12.058284	0.000000	1.571615	3.072714	-0.123340
2.715000	9.830558	2.248256	-180.192981	0.257377	0.850090	-1.210891	18.961046	-9.875194	-32.409788	-13.064503	-0.952875	10.589313	0.000000	20.695434	-16.236624	-27.389170	-16.132710	0.503048	12.036977	0.000000	1.596191	3.050538	-0.044197
2.720000	9.838572	2.268904	-180.178263	0.257192	0.850101	-1.210975	18.949205	-9.852864	-32.432580	-13.064384	-0.940324	10.600219	0.000000	20.714310	-16.269751	-27.341456	-16.181632	0.568583	12.021730	0.000000	1.630839	3.056290	-0.051603
2.725000	9.839564	2.276197	-180.133428	0.257003	0.850118	-1.211045	18.910888	-9.845092	-32.465971	-13.036283	-0.948105	10.603400	0.000000	20.737191	-16.262964	-27.286260	-16.196075	0.548713	11.965599	0.000000	1.656712	3.047941	-0.116286
2.730000	9.840753	2.273004	-180.108114	0.256812	0.850118	-1.211143	18.884734	-9.846187	-32.490486	-13.021112	-0.943740	10.601637	0.000000	20.747699	-16.278591	-27.291360	-16.242963	0.575303	11.949681	0.000000	1.678213	3.020319	-0.133851
2.735000	9.837922	2.297533	-180.095104	0.256573	0.850130	-1.211201	18.849302	-9.814546	-32.513906	-13.000967	-0.914659	10.600021	0.000000	20.740653	-16.307377	-27.291955	-16.249862	0.577204	11.923401	0.000000	1.703286	3.034020	-0.137208
2.740000	9.823078	2.352566	-180.086337	0.256359	0.850155	-1.211265	18.817038	-9.756143	-32.563198	-13.008966	-0.877220	10.609198	0.000000	20.734422	-16.368977	-27.234649	-16.276904	0.582305	11.865780	0.000000	1.708149	3.075570	-0.126991
2.745000	9.815451	2.362036	-180.088011	0.256149	0.850153	-1.211290	18.792558	-9.744829	-32.582635	-13.008686	-0.854448	10.610297	0.000000	20.726847	-16.385519	-27.219931	-16.305074	0.588691	11.846121	0.000000	1.722870	3.076049	-0.095401
2.750000	9.816525	2.363645	-180.089150	0.255982	0.850145	-1.211382	18.782515	-9.736675	-32.584814	-13.013518	-0.853289	10.611010	0.000000	20.717718	-16.394602	-27.217399	-16.311069	0.590182	11.842529	0.000000	1.739301	3.065807	-0.101126
2.755000	9.808129	2.368332	-180.063801	0.255816	0.850144	-1.211477	18.740873	-9.723530	-32.620163	-12.983016	-0.826553	10.603866	0.000000	20.725656	-16.407595	-27.215281	-16.354715	0.606241	11.814045	0.000000	1.747879	3.050528	-0.119798
2.760000	9.803080	2.402455	-180.029211	0.255662	0.850158	-1.211577	18.709353	-9.688718	-32.686826	-12.974099	-0.823967	10.616339	0.000000	20.737710	-16.437116	-27.121326	-16.372857	0.629850	11.773041	0.000000	1.750551	3.073323	-0.184218
2.765000	9.803207	2.404551	-180.023090	0.255474	0.850174	-1.211630	18.699474	-9.684786	-32.686895	-12.981395	-0.823132	10.616906	0.000000	20.729984	-16.445456	-27.124714	-16.377132	0.629965	11.765902	0.000000	1.768941	3.064025	-0.184725
2.770000	9.801874	2.419775	-180.022466	0.255320	0.850187	-1.211722	18.683061	-9.661767	-32.714720	-12.973892	-0.784183	10.616418	0.000000	20.731545	-16.471083	-27.127267	-16.397216	0.630911	11.717776	0.000000	1.781238	3.050348	-0.145590
2.775000	9.800537	2.425083	-180.017917	0.255135	0.850188	-1.211816	18.671005	-9.652074	-32.713139	-12.983667	-0.783595	10.618072	0.000000	20.722769	-16.483226	-27.124771	-16.404186	0.631463	11.712625	0.000000	1.797895	3.029393	-0.148677
2.780000	9.765417	2.447850	-179.994602	0.254951	0.850198	-1.211947	18.603307	-9.618261	-32.731725	-12.962798	-0.725364	10.634130	0.000000	20.700277	-16.508626	-27.071054	-16.440592	0.665006	11.651403	0.000000	1.767818	3.035226	-0.192561
2.785000	9.765176	2.446921	-179.995158	0.254798	0.850179	-1.212064	18.593610	-9.612808	-32.732401	-12.968707	-0.726826	10.634441	0.000000	20.691382	-16.510984	-27.063489	-16.445820	0.666158	11.653143	0.000000	1.782228	3.020963	-0.196218
2.790000	9.766290	2.452325	-180.000549	0.254603	0.850214	-1.212127	18.582482	-9.601645	-32.737055	-12.968747	-0.717165	10.643096	0.000000	20.675698	-16.522588	-27.060352	-16.441991	0.679609	11.635136	0.000000	1.787487	3.043693	-0.254285
2.795000	9.754224	2.472943	-180.014388	0.254483	0.850243	-1.212190	18.574042	-9.580644	-32.764742	-12.998510	-0.694140	10.636322	0.000000	20.659624	-16.550372	-27.021252	-16.457198	0.680554	11.632753	0.000000	1.799651	3.034635	-0.141454
2.800000	9.748892	2.505188	-180.040915	0.254326	0.850260	-1.212324	18.566608	-9.538181	-32.775974	-13.015853	-0.663527	10.669799	0.000000	20.640752	-16.596395	-27.027545	-16.459795	0.675897	11.556592	0.000000	1.805834	3.067311	-0.125389
2.805000	9.751281	2.506034	-180.042865	0.254197	0.850248	-1.212468	18.559658	-9.529386	-32.775191	-13.019636	-0.663576	10.671576	0.000000	20.633028	-16.606801	-27.021491	-16.463542	0.677221	11.556999	0.000000	1.820071	3.043361	-0.130992
2.810000	9.753628	2.510910	-180.019507	0.254024	0.850230	-1.212626	18.527548	-9.509990	-32.762856	-12.984979	-0.635741	10.699383	0.000000	20.639108	-16.619227	-26.986753	-16.478877	0.715570	11.550212	0.000000	1.823545	3.036494	-0.224132
2.815000	9.746949	2.521244	-179.998012	0.253913	0.850205	-1.212741	18.510684	-9.498393	-32.790274	-12.989454	-0.616001	10.691059	0.000000	20.644686	-16.638135	-26.977020	-16.498687	0.725085	11.541080	0.000000	1.839099	2.996025	-0.172329
2.820000	9.744669	2.541044	-180.014390	0.253726	0.850215	-1.212800	18.508129	-9.477248	-32.813724	-13.013533	-0.585429	10.684815	0.000000	20.622683	-16.663098	-26.977525	-16.486413	0.743331	11.522342	0.000000	1.861859	3.001819	-0.121607
2.825000	9.747014	2.564134	-180.038404	0.253607	0.850224	-1.212899	18.517104	-9.449570	-32.828676	-13.040474	-0.563886	10.698095	0.000000	20.620956	-16.702521	-26.973644	-16.508675	0.741121	11.495099	0.000000	1.870000	3.021691	-0.082771
2.830000	9.750169	2.563221	-180.043959	0.253483	0.850230	-1.213002	18.510795	-9.443877	-32.829584	-13.042682	-0.562777	10.699990	0.000000	20.614129	-16.709860	-26.970895	-16.509156	0.741722	11.493178	0.000000	1.883107	3.013418	-0.088756
2.835000	9.751176	2.563946	-180.044459	0.253380	0.850218	-1.213118	18.503535	-9.436964	-32.828110	-13.045718	-0.562647	10.703394	0.000000	20.609234	-16.714660	-26.968541	-16.508674	0.742175	11.490372	0.000000	1.894790	3.004602	-0.097273
2.840000	9.752680	2.566596	-180.038460	0.253265	0.850202	-1.213240	18.494869	-9.427154	-32.825326	-13.048891	-0.562408	10.708086	0.000000	20.606135	-16.724951	-26.966043	-16.509038	0.743587	11.486006	0.000000	1.905222	2.989696	-0.105302
2.845000	9.757092	2.633765	-180.020653	0.253134	0.850196	-1.213359	18.469030	-9.348202	-32.889664	-13.019623	-0.523226	10.776340	0.000000	20.623664	-16.787492	-26.850515	-16.509652	0.747315	11.318386	0.000000	1.916268	3.042323	-0.137021
2.850000	9.759276	2.651696	-180.033561	0.252991	0.850201	-1.213431	18.467796	-9.323789	-32.896430	-13.031010	-0.480056	10.784061	0.000000	20.610071	-16.811455	-26.836440	-16.503106	0.743476	11.296490	0.000000	1.928211	3.040823	-0.097453
2.855000	9.761971	2.654069	-180.037592	0.252866	0.850215	-1.213520	18.463741	-9.316032	-32.896691	-13.035907	-0.478012	10.785394	0.000000	20.602251	-16.822696	-26.836952	-16.505489	0.743757	11.290109	0.000000	1.938296	3.029275	-0.102675
2.860000	9.764394	2.656241	-180.034021	0.252773	0.850210	-1.213652	18.456633	-9.307917	-32.895902	-13.037685	-0.475633	10.787513	0.000000	20.602343	-16.832281	-26.838559	-16.504277	0.745488	11.283316	0.000000	1.945733	3.015341	-0.107640
2.865000	9.771715	2.668995	-180.006301	0.252702	0.850188	-1.213798	18.440271	-9.283949	-32.903886	-13.015228	-0.443358	10.809776	0.000000	20.625481	-16.845792	-26.788514	-16.524413	0.766550	11.225745	0.000000	1.950781	3.016854	-0.182994
2.870000	9.775575	2.670824	-180.005461	0.252596	0.850192	-1.213881	18.437374	-9.277762	-32.907901	-13.020155	-0.445066	10.809535	0.000000	20.622069	-16.853841	-26.788733	-16.521024	0.766989	11.221944	0.000000	1.957099	3.002703	-0.181010
2.875000	9.789890	2.684898	-180.023282	0.252496	0.850191	-1.213963	18.460801	-9.260272	-32.942243	-13.042663	-0.437018	10.800916	0.000000	20.611082	-16.869273	-26.789847	-16.486729	0.752742	11.206710	0.000000	1.973129	3.013159	-0.159955
2.880000	9.798169	2.717139	-180.047158	0.252396	0.850177	-1.214040	18.476207	-9.225034	-32.943182	-13.073096	-0.415435	10.819271	0.000000	20.607708	-16.914502	-26.795461	-16.481043	0.728369	11.154181	0.000000	1.982947	3.031818	-0.107638
